# Blender v2.79 (sub 0) OBJ File: 'Feuille.blend'
# www.blender.org
mtllib Feuille.mtl
o Leaf
v 0.000000 0.000000 -1.641135
v -0.431579 0.000000 -1.403664
v -0.719059 0.000000 -1.072741
v -0.868664 0.000000 -0.700219
v -0.865647 0.000000 -0.352030
v -0.632744 0.000000 0.035802
v -0.422146 0.000000 0.154728
v -0.194969 0.000000 0.148703
v 0.000000 0.000000 0.000000
v -0.309113 0.000000 0.164767
v -0.528000 0.000000 0.106650
v -0.811827 0.000000 -0.195733
v -0.879334 0.000000 -0.517333
v -0.816831 0.000000 -0.879541
v -0.598184 0.000000 -1.248157
v -0.218572 0.000000 -1.539091
v -0.141357 0.000000 0.128224
v -0.735059 0.000000 -0.073023
v 0.431579 0.000000 -1.403664
v 0.719059 0.000000 -1.072741
v 0.868664 0.000000 -0.700219
v 0.865647 0.000000 -0.352030
v 0.632744 0.000000 0.035802
v 0.422146 0.000000 0.154728
v 0.194969 0.000000 0.148703
v 0.309113 0.000000 0.164767
v 0.528000 0.000000 0.106650
v 0.811827 0.000000 -0.195733
v 0.879334 0.000000 -0.517333
v 0.816831 0.000000 -0.879541
v 0.598184 0.000000 -1.248157
v 0.218572 0.000000 -1.539091
v 0.141357 0.000000 0.128224
v 0.735059 0.000000 -0.073023
vn 0.0000 1.0000 0.0000
usemtl None
s off
f 16//1 9//1 1//1
f 16//1 2//1 9//1
f 15//1 9//1 2//1
f 15//1 3//1 9//1
f 14//1 9//1 3//1
f 14//1 4//1 9//1
f 13//1 9//1 4//1
f 13//1 5//1 9//1
f 12//1 9//1 5//1
f 18//1 9//1 12//1
f 18//1 6//1 9//1
f 11//1 9//1 6//1
f 11//1 7//1 9//1
f 10//1 9//1 7//1
f 10//1 8//1 9//1
f 17//1 9//1 8//1
f 32//1 1//1 9//1
f 32//1 9//1 19//1
f 31//1 19//1 9//1
f 31//1 9//1 20//1
f 30//1 20//1 9//1
f 30//1 9//1 21//1
f 29//1 21//1 9//1
f 29//1 9//1 22//1
f 28//1 22//1 9//1
f 34//1 28//1 9//1
f 34//1 9//1 23//1
f 27//1 23//1 9//1
f 27//1 9//1 24//1
f 26//1 24//1 9//1
f 26//1 9//1 25//1
f 33//1 25//1 9//1
