# Blender v2.79 (sub 0) OBJ File: ''
# www.blender.org
mtllib LeafTexture2.mtl
o Leaf
v 0.000000 0.000000 0.000000
v -1.430000 0.000000 0.000000
v -1.338094 -0.042834 -0.000000
v -1.239732 -0.065767 -0.000000
v -1.140410 -0.082252 -0.000000
v -1.039593 -0.095913 -0.000000
v -0.939194 -0.109438 -0.000000
v -0.840116 -0.131271 -0.000000
v -0.748782 -0.172166 -0.000000
v -0.646641 -0.178963 -0.000000
v -0.546790 -0.170941 -0.000000
v -0.447514 -0.157296 -0.000000
v -0.398685 -0.244985 -0.000000
v -0.315127 -0.300113 -0.000000
v -0.226885 -0.251598 -0.000000
v -0.149572 -0.186561 -0.000000
v -0.073580 -0.121152 -0.000000
v 0.047557 -0.088689 -0.000000
v 0.118657 -0.159967 -0.000000
v 0.194898 -0.225741 -0.000000
v 0.276317 -0.285987 -0.000000
v 0.369019 -0.246861 -0.000000
v 0.393788 -0.149840 -0.000000
v 0.494276 -0.164123 -0.000000
v 0.594269 -0.175780 -0.000000
v 0.695589 -0.178794 -0.000000
v 0.793590 -0.154758 -0.000000
v 0.887631 -0.118388 -0.000000
v 0.987550 -0.102671 -0.000000
v 1.090787 -0.089198 -0.000000
v 1.189934 -0.074579 -0.000000
v 1.291004 -0.055021 -0.000000
v 1.387138 -0.025794 -0.000000
v 1.374295 0.074846 0.000000
v 1.278219 0.106861 0.000000
v 1.182140 0.139433 0.000000
v 1.175587 0.240026 0.000000
v 1.105138 0.311106 0.000000
v 1.003282 0.316306 0.000000
v 0.902732 0.313661 0.000000
v 0.882906 0.412862 0.000000
v 0.962497 0.476158 0.000000
v 1.041896 0.540315 0.000000
v 1.121457 0.608885 0.000000
v 1.195238 0.680239 0.000000
v 1.260637 0.759794 0.000000
v 1.294058 0.854142 0.000000
v 1.294417 0.954541 0.000000
v 1.339185 1.044524 0.000000
v 1.396381 1.130140 0.000000
v 1.458090 1.216729 0.000000
v 1.517755 1.300357 0.000000
v 1.578380 1.388281 0.000000
v 1.634773 1.476014 0.000000
v 1.684790 1.564540 0.000000
v 1.723881 1.659618 0.000000
v 1.682645 1.751365 0.000000
v 1.583051 1.725434 0.000000
v 1.487567 1.677743 0.000000
v 1.397847 1.625015 0.000000
v 1.310879 1.570975 0.000000
v 1.223389 1.517852 0.000000
v 1.132749 1.473508 0.000000
v 1.035242 1.499049 0.000000
v 0.948366 1.548947 0.000000
v 0.857738 1.500195 0.000000
v 0.782301 1.434074 0.000000
v 0.710320 1.359782 0.000000
v 0.640263 1.281354 0.000000
v 0.574086 1.205675 0.000000
v 0.502259 1.132630 0.000000
v 0.451022 1.218944 0.000000
v 0.459234 1.321779 0.000000
v 0.468897 1.427415 0.000000
v 0.476437 1.527258 0.000000
v 0.480835 1.632803 0.000000
v 0.479085 1.735183 0.000000
v 0.465762 1.836407 0.000000
v 0.419368 1.926048 0.000000
v 0.325485 1.962099 0.000000
v 0.268248 2.045619 0.000000
v 0.239913 2.144920 0.000000
v 0.217569 2.250203 0.000000
v 0.196912 2.355892 0.000000
v 0.175900 2.459772 0.000000
v 0.152421 2.563475 0.000000
v 0.126165 2.660325 0.000000
v 0.092049 2.755831 0.000000
v 0.038061 2.842545 0.000000
v -0.060847 2.815097 0.000000
v -0.105189 2.722982 0.000000
v -0.135726 2.627455 0.000000
v -0.160989 2.527421 0.000000
v -0.183549 2.422912 0.000000
v -0.203820 2.320467 0.000000
v -0.223958 2.218465 0.000000
v -0.246120 2.119368 0.000000
v -0.277949 2.021926 0.000000
v -0.350362 1.951852 0.000000
v -0.439045 1.904161 0.000000
v -0.471787 1.805348 0.000000
v -0.480435 1.705311 0.000000
v -0.479953 1.598947 0.000000
v -0.474555 1.498935 0.000000
v -0.465907 1.393723 0.000000
v -0.456550 1.292248 0.000000
v -0.449939 1.189550 0.000000
v -0.550404 1.179487 0.000000
v -0.619057 1.257027 0.000000
v -0.687357 1.334557 0.000000
v -0.759328 1.411297 0.000000
v -0.833137 1.480365 0.000000
v -0.916784 1.537745 0.000000
v -1.016977 1.523457 0.000000
v -1.099531 1.465706 0.000000
v -1.193106 1.500990 0.000000
v -1.279491 1.551496 0.000000
v -1.369515 1.607552 0.000000
v -1.459131 1.661598 0.000000
v -1.552001 1.711336 0.000000
v -1.645815 1.746905 0.000000
v -1.729966 1.691599 0.000000
v -1.698284 1.592250 0.000000
v -1.649611 1.500762 0.000000
v -1.595441 1.414014 0.000000
v -1.535498 1.325650 0.000000
v -1.475044 1.240359 0.000000
v -1.414876 1.156341 0.000000
v -1.355225 1.069685 0.000000
v -1.305087 0.982254 0.000000
v -1.291038 0.881703 0.000000
v -1.273679 0.781224 0.000000
v -1.213368 0.699870 0.000000
v -1.140373 0.626228 0.000000
v -1.062264 0.557334 0.000000
v -0.981925 0.491623 0.000000
v -0.901853 0.428090 0.000000
v -0.825700 0.362991 0.000000
v -0.913122 0.313977 0.000000
v -1.014767 0.316336 0.000000
v -1.116596 0.309250 0.000000
v -1.165804 0.222014 0.000000
v -1.205771 0.129738 0.000000
v -1.302862 0.099451 0.000000
vt 0.522820 -0.298194
vt -1.368369 -0.213711
vt -1.249144 -0.274783
vt -1.120249 -0.310378
vt -0.989738 -0.337644
vt -0.857075 -0.361328
vt -0.724969 -0.384802
vt -0.595178 -0.418965
vt -0.476984 -0.477388
vt -0.342320 -0.492175
vt -0.209687 -0.487573
vt -0.077421 -0.475612
vt -0.019562 -0.592110
vt 0.085544 -0.668655
vt 0.205401 -0.610671
vt 0.312451 -0.530358
vt 0.417734 -0.449114
vt 0.574047 -0.415501
vt 0.651095 -0.505883
vt 0.733814 -0.590343
vt 0.822533 -0.668653
vt 0.934682 -0.632404
vt 0.973349 -0.521241
vt 1.087729 -0.548852
vt 1.201431 -0.573413
vt 1.317303 -0.588220
vt 1.432191 -0.571735
vt 1.543770 -0.540872
vt 1.659470 -0.534444
vt 1.778484 -0.531040
vt 1.892829 -0.525911
vt 2.009747 -0.515455
vt 2.122024 -0.493529
vt 2.118900 -0.377821
vt 2.011593 -0.330005
vt 1.904401 -0.281571
vt 1.908977 -0.166776
vt 1.836542 -0.077788
vt 1.719588 -0.059739
vt 1.603156 -0.050749
vt 1.592968 0.063936
vt 1.690559 0.125249
vt 1.787921 0.187417
vt 1.885884 0.254377
vt 1.977617 0.325070
vt 2.060903 0.405877
vt 2.110254 0.507203
vt 2.123458 0.619448
vt 2.185012 0.714163
vt 2.259835 0.802248
vt 2.353472 0.906403
vt 2.459186 1.024901
vt 2.568344 1.152417
vt 2.671861 1.282754
vt 2.759141 1.407402
vt 2.816817 1.516362
vt 2.778236 1.630709
vt 2.654711 1.610116
vt 2.532532 1.563784
vt 2.413160 1.514390
vt 2.297185 1.462556
vt 2.184330 1.408088
vt 2.069601 1.363781
vt 1.955404 1.404623
vt 1.857197 1.473943
vt 1.742126 1.424504
vt 1.643106 1.352459
vt 1.547220 1.270177
vt 1.453166 1.182727
vt 1.364144 1.098210
vt 1.268685 1.017493
vt 1.217776 1.126270
vt 1.239709 1.247484
vt 1.264345 1.375243
vt 1.288447 1.513661
vt 1.307574 1.651946
vt 1.317565 1.778961
vt 1.313242 1.902504
vt 1.267781 2.015882
vt 1.158855 2.070323
vt 1.099835 2.177589
vt 1.077567 2.300316
vt 1.060429 2.451663
vt 1.042441 2.629210
vt 1.020590 2.821819
vt 0.992678 3.017812
vt 0.957013 3.204271
vt 0.912695 3.363995
vt 0.850391 3.482442
vt 0.718383 3.455327
vt 0.649783 3.336992
vt 0.585219 3.212998
vt 0.524940 3.082090
vt 0.469258 2.944592
vt 0.418189 2.809248
vt 0.371692 2.674109
vt 0.329478 2.543000
vt 0.281878 2.415106
vt 0.182790 2.326461
vt 0.063738 2.268939
vt 0.014838 2.139536
vt -0.002576 2.006833
vt -0.009373 1.864811
vt -0.013214 1.729889
vt -0.010568 1.588334
vt -0.004669 1.452253
vt -0.001602 1.314985
vt -0.133578 1.308037
vt -0.218187 1.413502
vt -0.302191 1.518836
vt -0.390884 1.623283
vt -0.482293 1.717755
vt -0.587141 1.797672
vt -0.718162 1.785697
vt -0.829244 1.716213
vt -0.948149 1.768312
vt -1.056518 1.839619
vt -1.180040 1.925720
vt -1.312428 2.014797
vt -1.441994 2.092474
vt -1.562806 2.145128
vt -1.676818 2.077954
vt -1.640169 1.943793
vt -1.585685 1.813646
vt -1.526990 1.685655
vt -1.459635 1.555720
vt -1.390478 1.430531
vt -1.318984 1.309456
vt -1.243123 1.190684
vt -1.179184 1.072227
vt -1.163650 0.938465
vt -1.143842 0.804718
vt -1.066325 0.693850
vt -0.971696 0.592476
vt -0.870139 0.497118
vt -0.765505 0.405837
vt -0.661121 0.317428
vt -0.562031 0.227207
vt -0.678739 0.167284
vt -0.811228 0.175445
vt -0.944207 0.171376
vt -1.012837 0.060195
vt -1.069834 -0.057896
vt -1.197661 -0.091887
vn 0.0000 -0.0000 1.0000
usemtl Material.002
s 1
f 1/1/1 2/2/1 3/3/1
f 1/1/1 3/3/1 4/4/1
f 1/1/1 4/4/1 5/5/1
f 1/1/1 5/5/1 6/6/1
f 1/1/1 6/6/1 7/7/1
f 1/1/1 7/7/1 8/8/1
f 1/1/1 8/8/1 9/9/1
f 1/1/1 9/9/1 10/10/1
f 1/1/1 10/10/1 11/11/1
f 1/1/1 11/11/1 12/12/1
f 1/1/1 12/12/1 13/13/1
f 1/1/1 13/13/1 14/14/1
f 1/1/1 14/14/1 15/15/1
f 1/1/1 15/15/1 16/16/1
f 1/1/1 16/16/1 17/17/1
f 1/1/1 17/17/1 18/18/1
f 1/1/1 18/18/1 19/19/1
f 1/1/1 19/19/1 20/20/1
f 1/1/1 20/20/1 21/21/1
f 1/1/1 21/21/1 22/22/1
f 1/1/1 22/22/1 23/23/1
f 1/1/1 23/23/1 24/24/1
f 1/1/1 24/24/1 25/25/1
f 1/1/1 25/25/1 26/26/1
f 1/1/1 26/26/1 27/27/1
f 1/1/1 27/27/1 28/28/1
f 1/1/1 28/28/1 29/29/1
f 1/1/1 29/29/1 30/30/1
f 1/1/1 30/30/1 31/31/1
f 1/1/1 31/31/1 32/32/1
f 1/1/1 32/32/1 33/33/1
f 1/1/1 33/33/1 34/34/1
f 1/1/1 34/34/1 35/35/1
f 1/1/1 35/35/1 36/36/1
f 1/1/1 36/36/1 37/37/1
f 1/1/1 37/37/1 38/38/1
f 1/1/1 38/38/1 39/39/1
f 1/1/1 39/39/1 40/40/1
f 1/1/1 40/40/1 41/41/1
f 1/1/1 41/41/1 42/42/1
f 1/1/1 42/42/1 43/43/1
f 1/1/1 43/43/1 44/44/1
f 1/1/1 44/44/1 45/45/1
f 1/1/1 45/45/1 46/46/1
f 1/1/1 46/46/1 47/47/1
f 1/1/1 47/47/1 48/48/1
f 1/1/1 48/48/1 49/49/1
f 1/1/1 49/49/1 50/50/1
f 1/1/1 50/50/1 51/51/1
f 1/1/1 51/51/1 52/52/1
f 1/1/1 52/52/1 53/53/1
f 1/1/1 53/53/1 54/54/1
f 1/1/1 54/54/1 55/55/1
f 1/1/1 55/55/1 56/56/1
f 1/1/1 56/56/1 57/57/1
f 1/1/1 57/57/1 58/58/1
f 1/1/1 58/58/1 59/59/1
f 1/1/1 59/59/1 60/60/1
f 1/1/1 60/60/1 61/61/1
f 1/1/1 61/61/1 62/62/1
f 1/1/1 62/62/1 63/63/1
f 1/1/1 63/63/1 64/64/1
f 1/1/1 64/64/1 65/65/1
f 1/1/1 65/65/1 66/66/1
f 1/1/1 66/66/1 67/67/1
f 1/1/1 67/67/1 68/68/1
f 1/1/1 68/68/1 69/69/1
f 1/1/1 69/69/1 70/70/1
f 1/1/1 70/70/1 71/71/1
f 1/1/1 71/71/1 72/72/1
f 1/1/1 72/72/1 73/73/1
f 1/1/1 73/73/1 74/74/1
f 1/1/1 74/74/1 75/75/1
f 1/1/1 75/75/1 76/76/1
f 1/1/1 76/76/1 77/77/1
f 1/1/1 77/77/1 78/78/1
f 1/1/1 78/78/1 79/79/1
f 1/1/1 79/79/1 80/80/1
f 1/1/1 80/80/1 81/81/1
f 1/1/1 81/81/1 82/82/1
f 1/1/1 82/82/1 83/83/1
f 1/1/1 83/83/1 84/84/1
f 1/1/1 84/84/1 85/85/1
f 1/1/1 85/85/1 86/86/1
f 1/1/1 86/86/1 87/87/1
f 1/1/1 87/87/1 88/88/1
f 1/1/1 88/88/1 89/89/1
f 1/1/1 89/89/1 90/90/1
f 1/1/1 90/90/1 91/91/1
f 1/1/1 91/91/1 92/92/1
f 1/1/1 92/92/1 93/93/1
f 1/1/1 93/93/1 94/94/1
f 1/1/1 94/94/1 95/95/1
f 1/1/1 95/95/1 96/96/1
f 1/1/1 96/96/1 97/97/1
f 1/1/1 97/97/1 98/98/1
f 1/1/1 98/98/1 99/99/1
f 1/1/1 99/99/1 100/100/1
f 1/1/1 100/100/1 101/101/1
f 1/1/1 101/101/1 102/102/1
f 1/1/1 102/102/1 103/103/1
f 1/1/1 103/103/1 104/104/1
f 1/1/1 104/104/1 105/105/1
f 1/1/1 105/105/1 106/106/1
f 1/1/1 106/106/1 107/107/1
f 1/1/1 107/107/1 108/108/1
f 1/1/1 108/108/1 109/109/1
f 1/1/1 109/109/1 110/110/1
f 1/1/1 110/110/1 111/111/1
f 1/1/1 111/111/1 112/112/1
f 1/1/1 112/112/1 113/113/1
f 1/1/1 113/113/1 114/114/1
f 1/1/1 114/114/1 115/115/1
f 1/1/1 115/115/1 116/116/1
f 1/1/1 116/116/1 117/117/1
f 1/1/1 117/117/1 118/118/1
f 1/1/1 118/118/1 119/119/1
f 1/1/1 119/119/1 120/120/1
f 1/1/1 120/120/1 121/121/1
f 1/1/1 121/121/1 122/122/1
f 1/1/1 122/122/1 123/123/1
f 1/1/1 123/123/1 124/124/1
f 1/1/1 124/124/1 125/125/1
f 1/1/1 125/125/1 126/126/1
f 1/1/1 126/126/1 127/127/1
f 1/1/1 127/127/1 128/128/1
f 1/1/1 128/128/1 129/129/1
f 1/1/1 129/129/1 130/130/1
f 1/1/1 130/130/1 131/131/1
f 1/1/1 131/131/1 132/132/1
f 1/1/1 132/132/1 133/133/1
f 1/1/1 133/133/1 134/134/1
f 1/1/1 134/134/1 135/135/1
f 1/1/1 135/135/1 136/136/1
f 1/1/1 136/136/1 137/137/1
f 1/1/1 137/137/1 138/138/1
f 1/1/1 138/138/1 139/139/1
f 1/1/1 139/139/1 140/140/1
f 1/1/1 140/140/1 141/141/1
f 1/1/1 141/141/1 142/142/1
f 1/1/1 142/142/1 143/143/1
f 1/1/1 143/143/1 144/144/1
f 1/1/1 144/144/1 2/2/1
