# Blender v2.79 (sub 0) OBJ File: ''
# www.blender.org
mtllib twocubes.mtl
o Cube.001
v 1.000000 2.709419 -1.000000
v 1.000000 2.709419 1.000000
v -1.000000 2.709419 1.000000
v -1.000000 2.709419 -1.000000
v 1.000000 4.709419 -0.999999
v -1.000000 4.709419 -1.000000
v -1.000000 4.709419 1.000000
v 0.999999 4.709419 1.000001
vn 0.0000 -1.0000 0.0000
vn -0.0000 1.0000 0.0000
vn 1.0000 0.0000 0.0000
vn -0.0000 -0.0000 1.0000
vn -1.0000 -0.0000 0.0000
vn 0.0000 0.0000 -1.0000
usemtl Material.001
s 1
f 1//1 2//1 3//1 4//1
f 5//2 6//2 7//2 8//2
f 1//3 5//3 8//3 2//3
f 2//4 8//4 7//4 3//4
f 3//5 7//5 6//5 4//5
f 5//6 1//6 4//6 6//6
o Cube
v 5.660151 -1.000000 -1.000000
v 5.660151 -1.000000 1.000000
v 3.660151 -1.000000 1.000000
v 3.660151 -1.000000 -1.000000
v 5.660151 1.000000 -0.999999
v 5.660150 1.000000 1.000001
v 3.660150 1.000000 1.000000
v 3.660151 1.000000 -1.000000
vn 0.0000 -1.0000 0.0000
vn 0.0000 1.0000 0.0000
vn 1.0000 0.0000 0.0000
vn -0.0000 -0.0000 1.0000
vn -1.0000 -0.0000 -0.0000
vn 0.0000 0.0000 -1.0000
usemtl Material
s off
f 9//7 10//7 11//7 12//7
f 13//8 16//8 15//8 14//8
f 9//9 13//9 14//9 10//9
f 10//10 14//10 15//10 11//10
f 11//11 15//11 16//11 12//11
f 13//12 9//12 12//12 16//12
